HIERARCHY
ROOT SpineBase
{
  OFFSET 0.000000 0.000000 0.000000
  CHANNELS 6 Xposition Yposition Zposition Zrotation Xrotation Yrotation
  JOINT SpineMid
  {
    OFFSET 0.000000 32.076484 0.000000
    CHANNELS 3 Zrotation Xrotation Yrotation
    JOINT SpineShoulder
    {
      OFFSET 0.008164 23.810021 -0.710188
      CHANNELS 3 Zrotation Xrotation Yrotation
      JOINT Neck
      {
        OFFSET 0.021499 7.882118 -0.548717
        CHANNELS 3 Zrotation Xrotation Yrotation
        JOINT Head
        {
          OFFSET -4.301996 13.462130 1.836152
          CHANNELS 3 Zrotation Xrotation Yrotation
          End Site
          {
            OFFSET 0 0 0
          }
        }
      }
      JOINT ShoulderLeft
      {
        OFFSET -15.900925 -4.767516 9.172221
        CHANNELS 3 Zrotation Xrotation Yrotation
        JOINT ElbowLeft
        {
          OFFSET -2.880122 -29.306175 0.439092
          CHANNELS 3 Zrotation Xrotation Yrotation
          JOINT WristLeft
          {
            OFFSET 0.897517 -21.394781 -5.408558
            CHANNELS 3 Zrotation Xrotation Yrotation
            JOINT HandLeft
            {
              OFFSET 0.200759 -7.451503 -0.984195
              CHANNELS 3 Zrotation Xrotation Yrotation
              JOINT HandTipLeft
              {
                OFFSET 1.245682 -8.236550 0.051965
                CHANNELS 3 Zrotation Xrotation Yrotation
                End Site
                {
                  OFFSET 0 0 0
                }
              }
              JOINT ThumbLeft
              {
                OFFSET 5.021066 1.518223 -4.186825
                CHANNELS 3 Zrotation Xrotation Yrotation
                End Site
                {
                  OFFSET 0 0 0
                }
              }
            }
          }
        }
      }
      JOINT ShoulderRight
      {
        OFFSET 13.005795 -3.395436 -8.432530
        CHANNELS 3 Zrotation Xrotation Yrotation
        JOINT ElbowRight
        {
          OFFSET 7.878726 -28.268171 -5.274684
          CHANNELS 3 Zrotation Xrotation Yrotation
          JOINT WristRight
          {
            OFFSET 0.865249 -21.070594 -6.269208
            CHANNELS 3 Zrotation Xrotation Yrotation
            JOINT HandRight
            {
              OFFSET -1.066654 -4.027737 0.852106
              CHANNELS 3 Zrotation Xrotation Yrotation
              JOINT HandTipRight
              {
                OFFSET -0.125095 -7.383444 -0.897440
                CHANNELS 3 Zrotation Xrotation Yrotation
                End Site
                {
                  OFFSET 0 0 0
                }
              }
              JOINT ThumbRight
              {
                OFFSET -2.469727 -0.156236 -2.098167
                CHANNELS 3 Zrotation Xrotation Yrotation
                End Site
                {
                  OFFSET 0 0 0
                }
              }
            }
          }
        }
      }
    }
  }
  JOINT HipLeft
  {
    OFFSET -6.519879 0.065500 -0.008382
    CHANNELS 3 Zrotation Xrotation Yrotation
    JOINT KneeLeft
    {
      OFFSET 4.363235 -36.633698 4.329517
      CHANNELS 3 Zrotation Xrotation Yrotation
      JOINT AnkleLeft
      {
        OFFSET 8.520494 -36.625666 7.957413
        CHANNELS 3 Zrotation Xrotation Yrotation
        JOINT FootLeft
        {
          OFFSET -2.601388 -4.022222 -8.099039
          CHANNELS 3 Zrotation Xrotation Yrotation
          End Site
          {
            OFFSET 0 0 0
          }
        }
      }
    }
  }
  JOINT HipRight
  {
    OFFSET 6.846908 1.738140 -7.010340
    CHANNELS 3 Zrotation Xrotation Yrotation
    JOINT KneeRight
    {
      OFFSET 8.554933 -34.946528 -1.753500
      CHANNELS 3 Zrotation Xrotation Yrotation
      JOINT AnkleRight
      {
        OFFSET 4.348148 -36.602258 10.233088
        CHANNELS 3 Zrotation Xrotation Yrotation
        JOINT FootRight
        {
          OFFSET -2.307236 -7.740601 -4.485268
          CHANNELS 3 Zrotation Xrotation Yrotation
          End Site
          {
            OFFSET 0 0 0
          }
        }
      }
    }
  }
}
MOTION
Frames: 14
Frame Time: 0.033333
-14.358392 64.329761 339.896084 8.446078 -22.303061 20.363161 -0.313741 -0.031972 -18.389260 -0.163650 -0.046426 0.383397 6.205156 6.320453 -9.488785 0.000000 0.000000 0.000000 -1.990811 4.970327 1.407741 -11.118146 7.641393 1.364858 -16.753065 5.734528 4.504563 17.328599 16.447167 -0.634250 0.000000 0.000000 0.000000 0.000000 0.000000 0.000000 2.342757 21.201346 -4.852701 -9.097043 1.928837 2.054407 -0.240640 21.413213 -6.219507 -5.989663 -27.985689 4.217824 0.000000 0.000000 0.000000 0.000000 0.000000 0.000000 -17.869378 47.728637 -8.063331 28.940563 -18.024397 8.220335 -9.516919 -1.427642 0.693692 0.000000 0.000000 0.000000 19.372446 63.681949 -22.443754 -6.227686 -52.381591 -14.590278 -11.485871 25.514152 4.595640 0.000000 0.000000 0.000000
-13.817585 61.886632 340.545819 9.017690 -23.425089 18.906494 -0.306898 -0.039843 -16.709240 -0.153751 -0.005070 0.403533 6.356388 6.956318 -9.950728 0.000000 0.000000 0.000000 -2.731509 7.761858 1.252125 -11.792618 7.932518 1.849259 -18.663875 7.084077 4.944605 21.880671 13.882627 -0.716766 0.000000 0.000000 0.000000 0.000000 0.000000 0.000000 2.511397 23.822662 -4.952415 -10.564077 1.044726 1.921669 2.504169 22.667579 -7.117771 -8.567158 -27.599808 3.625213 0.000000 0.000000 0.000000 0.000000 0.000000 0.000000 -23.509819 50.188000 -2.768831 33.424522 -20.354340 10.080154 -12.980875 10.177917 -1.249616 0.000000 0.000000 0.000000 16.862575 69.722692 -19.240565 -5.371147 -58.688255 -15.588922 -8.226134 19.618420 3.478500 0.000000 0.000000 0.000000
-13.184273 59.404007 341.256183 9.644482 -24.646214 17.878468 -0.340544 -0.003659 -15.416134 -0.179061 0.049010 0.427173 6.418419 8.180799 -10.272538 0.000000 0.000000 0.000000 -3.146166 10.351315 1.071716 -12.882586 9.302136 2.513656 -18.218532 7.916162 4.466903 22.711258 12.467127 0.057610 0.000000 0.000000 0.000000 0.000000 0.000000 0.000000 2.399227 27.012142 -4.798450 -11.767575 -0.364016 1.512464 4.226106 24.565689 -8.264288 -11.273898 -27.079576 3.110691 0.000000 0.000000 0.000000 0.000000 0.000000 0.000000 -29.046039 52.761470 2.512545 37.411588 -22.800805 11.973467 -15.683760 21.118254 -2.933003 0.000000 0.000000 0.000000 11.545506 75.685539 -13.738205 -2.390253 -63.754829 -14.753302 -4.652605 23.226127 -1.235521 0.000000 0.000000 0.000000
-12.960723 56.855542 342.381672 9.834641 -26.466260 18.826050 -0.252511 0.041707 -16.168172 -0.168345 0.223650 0.425185 6.328319 9.620347 -10.588456 0.000000 0.000000 0.000000 -3.756030 14.482959 0.846307 -13.063058 9.531761 2.821201 -18.543852 12.196735 5.136865 25.490060 9.660330 1.870216 0.000000 0.000000 0.000000 0.000000 0.000000 0.000000 1.780382 30.595045 -4.251500 -12.513024 -1.447056 1.042924 3.979019 25.604639 -9.251260 -11.953643 -25.032191 3.505010 0.000000 0.000000 0.000000 0.000000 0.000000 0.000000 -30.777848 57.910211 5.175554 40.444705 -26.587928 14.237747 -18.960263 29.644977 -2.368220 0.000000 0.000000 0.000000 18.126275 81.261380 -19.476396 -0.243637 -68.591646 -14.022165 -4.600185 22.475578 -1.914348 0.000000 0.000000 0.000000
-12.811717 53.879210 343.024098 9.836494 -27.270667 19.703809 -0.225152 0.071540 -16.977659 -0.102113 0.355200 0.405496 6.630076 9.444248 -11.013322 0.000000 0.000000 0.000000 -4.739110 18.169802 0.765502 -12.148329 8.686361 2.725280 -21.926561 19.829644 7.828977 27.195872 4.353103 4.648356 0.000000 0.000000 0.000000 0.000000 0.000000 0.000000 0.773767 33.482767 -3.228884 -12.610094 -2.599431 0.324593 1.482774 25.420111 -9.770838 -12.223127 -22.429994 4.244160 0.000000 0.000000 0.000000 0.000000 0.000000 0.000000 -32.234904 62.299242 7.405456 43.742169 -30.346764 16.949917 -20.814419 32.288287 -1.952529 0.000000 0.000000 0.000000 40.873953 85.079039 -41.043828 -1.293268 -73.731477 -15.726669 -7.121323 23.925619 -0.432055 0.000000 0.000000 0.000000
-12.820659 50.902560 344.106911 9.486903 -28.568212 19.518887 -0.141288 0.013591 -16.791779 -0.121007 0.268658 0.409493 7.988842 10.091123 -11.930504 0.000000 0.000000 0.000000 -5.438774 22.913988 0.698662 -11.740280 8.404070 2.954344 -20.078267 23.311498 7.681000 27.352049 7.574171 7.763799 0.000000 0.000000 0.000000 0.000000 0.000000 0.000000 -0.343798 36.731510 -2.023184 -13.091541 -3.094354 -0.121066 0.066043 25.073448 -10.593249 -10.839362 -21.055572 5.466735 0.000000 0.000000 0.000000 0.000000 0.000000 0.000000 -36.859054 67.710943 13.933368 48.517393 -35.154880 21.340532 -19.112264 33.084627 -6.997932 0.000000 0.000000 0.000000 114.254629 86.260314 -112.242575 -5.519094 -77.461658 -19.869853 -12.799936 15.896584 5.830880 0.000000 0.000000 0.000000
-12.938344 47.521741 345.474870 9.123698 -30.129356 18.317580 -0.040610 0.209061 -15.586725 -0.185417 0.197668 0.418397 9.937176 10.716887 -13.118597 0.000000 0.000000 0.000000 -6.091874 27.721681 0.729951 -11.106214 8.082930 3.134459 -19.085516 24.589011 7.203390 20.451820 14.657300 9.723446 0.000000 0.000000 0.000000 0.000000 0.000000 0.000000 -0.508028 39.935437 -1.348362 -14.759745 -3.696502 -0.460637 -0.772296 24.524417 -11.484910 -10.970667 -19.508031 6.249206 0.000000 0.000000 0.000000 0.000000 0.000000 0.000000 -43.034739 71.625358 22.554039 51.694272 -38.746681 25.048587 -10.265071 31.259198 -22.741196 0.000000 0.000000 0.000000 158.491225 81.565170 -153.594951 -21.762061 -81.111093 -35.318240 -17.814192 -2.059412 14.416070 0.000000 0.000000 0.000000
-13.240591 44.684558 346.797152 8.677161 -31.608001 17.740890 0.095280 0.302775 -15.058521 -0.160905 0.067993 0.413951 11.608465 11.873995 -14.182070 0.000000 0.000000 0.000000 -7.027664 31.993095 1.037841 -9.851436 8.477908 3.243475 -17.220301 24.235902 5.998038 10.520792 19.921346 10.665034 0.000000 0.000000 0.000000 0.000000 0.000000 0.000000 -0.582323 42.705287 -0.874953 -16.544160 -4.230733 -0.678975 -1.330239 24.570585 -12.355967 -10.942023 -19.419773 6.835892 0.000000 0.000000 0.000000 0.000000 0.000000 0.000000 -68.534247 77.247980 50.232832 58.906268 -44.076989 32.663549 -8.605670 19.779104 -25.276302 0.000000 0.000000 0.000000 164.418210 76.151094 -156.608532 -47.064849 -82.067528 -59.370794 -24.549553 -0.107359 17.947986 0.000000 0.000000 0.000000
-13.299728 42.156575 348.017251 8.565866 -32.929804 16.306010 0.086286 0.514433 -13.552876 -0.202703 -0.015981 0.424469 12.659138 12.998344 -14.910680 0.000000 0.000000 0.000000 -7.787890 35.712991 1.335375 -9.138278 8.767867 3.450899 -15.200531 21.571656 4.378346 5.835967 15.435094 8.286033 0.000000 0.000000 0.000000 0.000000 0.000000 0.000000 0.153208 44.706385 -1.139568 -18.539704 -4.639337 -0.764856 -1.154649 25.129326 -13.062167 -11.633830 -18.632528 7.216951 0.000000 0.000000 0.000000 0.000000 0.000000 0.000000 -118.598407 73.490001 100.826854 75.627469 -49.368837 47.758811 -8.302608 9.496400 -25.881218 0.000000 0.000000 0.000000 169.973530 71.197537 -159.846195 -70.961326 -80.986987 -82.070621 -25.814884 1.248026 18.174317 0.000000 0.000000 0.000000
-12.522462 40.042086 349.372837 9.149397 -34.592599 15.786929 0.011694 0.690895 -12.684538 -0.251170 0.012693 0.452752 15.252027 14.170219 -16.706796 0.000000 0.000000 0.000000 -9.028911 39.907574 1.790443 -9.266216 8.605657 3.821782 -17.315122 20.414897 4.160329 6.244728 13.357024 7.904673 0.000000 0.000000 0.000000 0.000000 0.000000 0.000000 0.122279 47.229145 -1.104960 -20.566934 -4.454850 -0.860132 -0.725938 23.768885 -13.729736 -12.201967 -17.607169 7.535945 0.000000 0.000000 0.000000 0.000000 0.000000 0.000000 -140.352849 61.408008 121.116140 95.207643 -50.050269 64.416833 -7.418131 -1.313783 -25.377239 0.000000 0.000000 0.000000 177.458169 65.781589 -166.667840 -90.359036 -80.595584 -102.527414 -23.388586 5.401007 15.503543 0.000000 0.000000 0.000000
-12.669956 37.755341 350.414064 8.754155 -35.811164 14.214175 -0.077207 0.781148 -11.120264 -0.006731 0.132594 0.370419 17.218732 15.170845 -17.918283 0.000000 0.000000 0.000000 -9.765057 43.008821 2.226233 -9.491541 9.075628 4.261588 -12.615735 20.437266 2.993557 6.836555 9.066116 7.159760 0.000000 0.000000 0.000000 0.000000 0.000000 0.000000 0.525987 48.827996 -1.183622 -22.553501 -3.896445 -0.727169 0.660471 22.999483 -14.491183 -12.440390 -16.779879 7.877551 0.000000 0.000000 0.000000 0.000000 0.000000 0.000000 -149.823386 49.562707 131.198648 113.314647 -49.303826 81.863779 -5.017554 -5.812709 -31.160397 0.000000 0.000000 0.000000 -175.411076 60.777628 -172.867545 -107.672598 -79.270212 -121.366935 -10.012085 14.279629 4.234745 0.000000 0.000000 0.000000
-12.498029 36.184134 351.242716 9.028421 -36.706358 13.744317 -0.298236 0.661988 -10.408213 -0.274147 0.191466 0.436277 18.008772 16.261430 -18.531918 0.000000 0.000000 0.000000 -10.193368 44.158250 2.694276 -9.945235 11.160615 4.830449 -1.406080 19.006889 0.965608 -2.404419 3.402259 3.469799 0.000000 0.000000 0.000000 0.000000 0.000000 0.000000 0.688952 49.916289 -1.152001 -23.983471 -2.742557 -0.305950 2.103393 21.471916 -15.051687 -13.853799 -17.129270 7.403095 0.000000 0.000000 0.000000 0.000000 0.000000 0.000000 -154.163597 39.334162 134.610581 126.059587 -45.614860 93.065451 0.463891 -7.110295 -47.561951 0.000000 0.000000 0.000000 -172.773764 57.872756 -175.469726 -114.204371 -78.115823 -128.929448 -6.803323 26.823709 -0.883852 0.000000 0.000000 0.000000
-11.858649 34.247441 351.257254 9.669878 -37.121975 14.793525 -0.408466 0.714271 -11.151501 -0.550716 0.352715 0.513767 18.164376 17.235236 -18.607553 0.000000 0.000000 0.000000 -10.852140 45.097279 3.046713 -10.517811 12.632194 5.344831 8.669596 16.435476 -0.257774 -10.343693 -1.104238 0.521819 0.000000 0.000000 0.000000 0.000000 0.000000 0.000000 0.491030 50.590081 -0.967376 -25.568133 -1.908663 -0.059977 3.663029 19.730248 -15.522793 -14.473384 -17.138376 7.190681 0.000000 0.000000 0.000000 0.000000 0.000000 0.000000 -156.459072 31.695181 134.716568 133.335771 -40.899666 97.486640 3.281142 -10.629507 -56.420264 0.000000 0.000000 0.000000 -178.072408 55.751817 -168.541770 -113.779471 -75.432710 -126.342842 -7.971766 36.721178 -2.141100 0.000000 0.000000 0.000000
-11.493383 32.224121 350.316276 9.595776 -36.667767 17.333410 -0.190556 0.667663 -13.820819 -0.781700 0.484642 0.567099 18.342237 17.775254 -18.321983 0.000000 0.000000 0.000000 -11.258709 45.732218 3.187594 -9.962039 13.069093 5.424075 13.766325 18.125539 -0.496042 -12.380222 -4.436470 -0.138848 0.000000 0.000000 0.000000 0.000000 0.000000 0.000000 -0.688417 49.910536 0.015015 -25.900697 -0.581354 0.431989 3.730980 17.476655 -15.901813 -14.805993 -15.149741 7.758048 0.000000 0.000000 0.000000 0.000000 0.000000 0.000000 -157.952378 27.696752 134.974538 137.026807 -37.113444 98.260240 5.416806 -10.509418 -60.932402 0.000000 0.000000 0.000000 168.589449 54.192444 -150.927436 -112.381523 -70.192998 -118.965164 -17.043475 37.698687 5.596524 0.000000 0.000000 0.000000
